<?xml version="1.0" encoding="iso-8859-1"?>
<!-- Generator: Adobe Illustrator 16.0.0, SVG Export Plug-In . SVG Version: 6.00 Build 0)  -->
<!DOCTYPE svg PUBLIC "-//W3C//DTD SVG 1.1//EN" "http://www.w3.org/Graphics/SVG/1.1/DTD/svg11.dtd">
<svg version="1.1" id="Layer_1" xmlns="http://www.w3.org/2000/svg" xmlns:xlink="http://www.w3.org/1999/xlink" x="0px" y="0px"
	 width="192.756px" height="192.756px" viewBox="0 0 192.756 192.756" style="enable-background:new 0 0 192.756 192.756;"
	 xml:space="preserve">
<g>
	<polygon style="fill-rule:evenodd;clip-rule:evenodd;fill:transparent;" points="0,0 192.756,0 192.756,192.756 0,192.756 0,0 	"/>
	<path style="fill-rule:evenodd;clip-rule:evenodd;" d="M108.291,71.732c0,0,1.375-5.194,6.875-2.292l3.514,1.528l2.598-1.68
		c0,0,1.682-1.07,2.139,0.61l3.82,8.25c0,0,1.223,1.834-1.223,1.834c0,0-2.139,0.153-2.139,2.597l-0.074,4.847
		c0,0-0.303,3.155-3.816,3.307h-7.633c0,0-3.152-0.76-4.07-3.816L108.291,71.732L108.291,71.732z"/>
	<path style="fill-rule:evenodd;clip-rule:evenodd;" d="M131.973,68.372c0,0-8.861-3.208-16.654-2.446c0,0-8.861-0.916-9.473,5.501
		l-0.107,20.071c0,0,0.764,1.526-0.254,2.035L77.12,93.582v-1.985l24.294-0.098c0,0,2.139-1.125,0.154-2.652
		c-0.766,0-24.295,0-24.295,0l-0.153-2.293h23.683c0,0,1.68,0.165,0.611-2.433h-33.58l0.119-1.692l25.829-0.088v-2.798H68.088
		l0.018-2.003l25.676-0.032l0.146-2.412l-25.33-0.132c0,0-1.071-2.086,1.526-2.544l16.317,0.23c0,0,2.561-1.909-0.036-2.52H73.431
		l1.271-2.035h12.465c0,0,1.273-2.391,0.509-2.544l-8.264,0.07l8.862-8.861l1.946-4.246c-0.343-0.008,22.959-0.185,24.334,1.343
		c0,0,6.111,0.764,6.111,3.973l-9.932,0.306l0.307,0.611c0,0,3.666,1.069,3.973,1.986c0,0,5.652-1.986,8.555-1.681
		C123.568,59.052,131.516,58.898,131.973,68.372L131.973,68.372z"/>
	<polygon style="fill-rule:evenodd;clip-rule:evenodd;" points="85.83,96.027 85.83,98.014 102.025,98.014 104.467,95.823 
		85.83,96.027 	"/>
	<polygon style="fill-rule:evenodd;clip-rule:evenodd;" points="85.83,100.764 85.83,102.75 94.997,102.75 98.971,100.764 
		85.83,100.764 	"/>
	<path style="fill-rule:evenodd;clip-rule:evenodd;" d="M18.871,120.898c0.118-0.443,0.239-0.908,0.362-1.396
		c0.179,0.696,0.326,1.266,0.439,1.708c0.113,0.442,0.203,0.764,0.269,0.963l2.112,6.547h-5.626l2.083-6.547
		C18.632,121.767,18.752,121.342,18.871,120.898L18.871,120.898z M15.208,132.583h8.035l1.049,3.552h5.626l-7.171-19.847h-7.086
		l-7.157,19.847h5.626L15.208,132.583L15.208,132.583z"/>
	<polygon style="fill-rule:evenodd;clip-rule:evenodd;" points="42.483,136.135 31.586,136.135 31.586,119.125 42.483,119.125 
		42.483,122.854 36.312,122.854 36.312,125.806 42.13,125.806 42.13,129.454 36.312,129.454 36.312,132.324 42.483,132.324 
		42.483,136.135 	"/>
	<path style="fill-rule:evenodd;clip-rule:evenodd;" d="M51.205,122.692c1.061,0,1.816,0.18,2.266,0.539
		c0.449,0.361,0.674,0.967,0.674,1.818c0,0.729-0.241,1.264-0.722,1.604c-0.483,0.342-1.246,0.513-2.291,0.513h-0.898v-4.474H51.205
		L51.205,122.692z M50.233,129.478l4.082,6.657h5.478l-4.847-6.854c1.295-0.271,2.281-0.82,2.958-1.645
		c0.676-0.826,1.015-1.896,1.015-3.213c0-0.867-0.172-1.661-0.517-2.383c-0.345-0.719-0.836-1.312-1.476-1.776
		c-0.567-0.411-1.241-0.704-2.022-0.878c-0.782-0.174-2.165-0.261-4.148-0.261H45.69v17.01h4.543V129.478L50.233,129.478z"/>
	<path style="fill-rule:evenodd;clip-rule:evenodd;" d="M67.045,131.256c-0.867-0.938-1.299-2.135-1.299-3.591
		c0-1.434,0.439-2.624,1.317-3.573c0.878-0.948,1.99-1.424,3.334-1.424c1.32,0,2.425,0.478,3.316,1.43
		c0.891,0.952,1.336,2.142,1.336,3.567c0,1.44-0.439,2.634-1.318,3.579c-0.879,0.944-1.99,1.417-3.334,1.417
		C69.029,132.661,67.911,132.192,67.045,131.256L67.045,131.256z M79.186,124.226c-0.474-1.076-1.156-2.034-2.046-2.87
		c-0.891-0.837-1.922-1.481-3.092-1.935c-1.17-0.453-2.387-0.68-3.65-0.68c-1.272,0-2.488,0.227-3.65,0.68
		c-1.163,0.453-2.185,1.098-3.068,1.935c-0.915,0.844-1.609,1.804-2.083,2.876c-0.474,1.073-0.711,2.218-0.711,3.434
		c0,1.208,0.237,2.351,0.711,3.428c0.474,1.076,1.168,2.037,2.083,2.882c0.883,0.836,1.905,1.48,3.068,1.935
		c1.162,0.453,2.378,0.679,3.65,0.679c1.255,0,2.466-0.226,3.632-0.679c1.166-0.454,2.202-1.099,3.11-1.935
		c0.899-0.845,1.583-1.802,2.053-2.87c0.469-1.068,0.705-2.216,0.705-3.439C79.897,126.449,79.66,125.303,79.186,124.226
		L79.186,124.226z"/>
	<path style="fill-rule:evenodd;clip-rule:evenodd;" d="M103.855,116.288l3.189,19.847h-5.287l-1.219-8.58
		c-0.084-0.605-0.162-1.278-0.234-2.021c-0.07-0.74-0.133-1.549-0.191-2.426c-0.131,0.84-0.391,1.888-0.779,3.146
		c-0.084,0.262-0.146,0.456-0.184,0.582l-2.82,9.299h-3.77l-2.82-9.299c-0.038-0.126-0.095-0.32-0.169-0.582
		c-0.397-1.258-0.657-2.301-0.78-3.133c-0.056,0.751-0.123,1.494-0.198,2.23c-0.076,0.737-0.166,1.472-0.269,2.203l-1.219,8.58
		h-5.258l3.203-19.847h5.598l3.132,10.235c0.019,0.073,0.057,0.19,0.113,0.354c0.293,0.913,0.478,1.694,0.553,2.345
		c0.038-0.353,0.108-0.743,0.213-1.173c0.104-0.429,0.246-0.945,0.425-1.552l3.161-10.209H103.855L103.855,116.288z"/>
	<polygon style="fill-rule:evenodd;clip-rule:evenodd;" points="120.672,136.135 109.775,136.135 109.775,119.125 120.672,119.125 
		120.672,122.854 114.502,122.854 114.502,125.806 120.32,125.806 120.32,129.454 114.502,129.454 114.502,132.324 120.672,132.324 
		120.672,136.135 	"/>
	<path style="fill-rule:evenodd;clip-rule:evenodd;" d="M128.033,119.125l2.139,3.949c0.008,0.017,0.016,0.032,0.023,0.047
		c0.283,0.511,0.475,0.961,0.572,1.349c0.088-0.356,0.27-0.779,0.545-1.268c0.033-0.053,0.057-0.096,0.074-0.128l2.137-3.949h5.746
		l-5.939,8.18l6.572,8.83h-5.504l-3.012-5.042c-0.139-0.225-0.26-0.455-0.365-0.691s-0.189-0.476-0.254-0.716
		c-0.074,0.271-0.158,0.524-0.256,0.756c-0.098,0.232-0.211,0.45-0.34,0.651l-3.037,5.042h-5.504l6.598-8.923l-5.965-8.087H128.033
		L128.033,119.125z"/>
	<polygon style="fill-rule:evenodd;clip-rule:evenodd;" points="146.461,136.135 141.564,136.135 141.564,119.125 146.461,119.125 
		146.461,136.135 	"/>
	<path style="fill-rule:evenodd;clip-rule:evenodd;" d="M163.262,119.786v5.066c-0.666-0.705-1.328-1.222-1.988-1.551
		c-0.658-0.328-1.365-0.493-2.119-0.493c-1.393,0-2.52,0.454-3.383,1.365c-0.861,0.91-1.293,2.097-1.293,3.561
		c0,1.363,0.439,2.494,1.318,3.393s1.998,1.349,3.357,1.349c0.754,0,1.461-0.165,2.119-0.494c0.66-0.329,1.322-0.851,1.988-1.563
		v5.078c-0.771,0.356-1.535,0.624-2.297,0.802s-1.531,0.268-2.307,0.268c-0.973,0-1.869-0.11-2.691-0.331s-1.578-0.557-2.266-1.006
		c-1.328-0.852-2.34-1.925-3.037-3.218s-1.045-2.75-1.045-4.369c0-1.302,0.221-2.485,0.662-3.55c0.441-1.065,1.107-2.03,1.998-2.899
		c0.842-0.828,1.791-1.447,2.85-1.859c1.057-0.409,2.232-0.616,3.529-0.616c0.775,0,1.545,0.09,2.307,0.268
		C161.727,119.163,162.49,119.431,163.262,119.786L163.262,119.786z"/>
	<path style="fill-rule:evenodd;clip-rule:evenodd;" d="M171.398,131.256c-0.865-0.938-1.299-2.135-1.299-3.591
		c0-1.434,0.439-2.624,1.318-3.573c0.879-0.948,1.99-1.424,3.334-1.424c1.32,0,2.426,0.478,3.316,1.43s1.336,2.142,1.336,3.567
		c0,1.44-0.439,2.634-1.316,3.579c-0.881,0.944-1.992,1.417-3.336,1.417C173.383,132.661,172.266,132.192,171.398,131.256
		L171.398,131.256z M183.541,124.226c-0.475-1.076-1.156-2.034-2.047-2.87c-0.891-0.837-1.922-1.481-3.092-1.935
		s-2.387-0.68-3.65-0.68c-1.271,0-2.488,0.227-3.65,0.68s-2.184,1.098-3.066,1.935c-0.916,0.844-1.609,1.804-2.084,2.876
		c-0.473,1.073-0.709,2.218-0.709,3.434c0,1.208,0.236,2.351,0.709,3.428c0.475,1.076,1.168,2.037,2.084,2.882
		c0.883,0.836,1.904,1.48,3.066,1.935c1.162,0.453,2.379,0.679,3.65,0.679c1.256,0,2.467-0.226,3.633-0.679
		c1.166-0.454,2.201-1.099,3.109-1.935c0.898-0.845,1.584-1.802,2.053-2.87c0.471-1.068,0.705-2.216,0.705-3.439
		C184.252,126.449,184.016,125.303,183.541,124.226L183.541,124.226z"/>
</g>
</svg>
