<?xml version="1.0" encoding="utf-8"?>
<!-- Generator: Adobe Illustrator 19.0.0, SVG Export Plug-In . SVG Version: 6.00 Build 0)  -->
<svg version="1.1" id="Karisma_Logo" xmlns="http://www.w3.org/2000/svg" xmlns:xlink="http://www.w3.org/1999/xlink" x="0px"
	 y="0px" viewBox="0 0 250 71" enable-background="new 0 0 250 71" xml:space="preserve">
<g id="_x3C_Group_x3E_">
	<g>
		<path fill="#000" d="M11.4,60.8h-5v-4H5.3v9.4h1.1v-4.4h5v4.4h1.1v-9.4h-1.1V60.8z M26.4,56.6c-2.9,0-4.9,2.1-4.9,4.9
			c0,2.8,2.1,4.9,4.9,4.9s4.9-2.1,4.9-4.9C31.3,58.7,29.2,56.6,26.4,56.6z M26.4,65.5c-2.2,0-3.7-1.7-3.7-3.9c0-2.2,1.5-3.9,3.7-3.9
			c2.2,0,3.7,1.7,3.7,3.9C30.1,63.7,28.6,65.5,26.4,65.5z M40.4,57.9h3.1v8.4h1.1v-8.4h3.1v-1h-7.3V57.9z M58.4,61.9h4.5v-1h-4.5
			v-2.9h4.8v-1h-5.9v9.4h6.1v-1h-5V61.9z M74.4,56.9h-1.1v9.4h5.4v-1h-4.3V56.9z M90.4,61c-1.5-0.5-2-0.9-2-1.7c0-1.1,1-1.6,2-1.6
			c0.7,0,1.3,0.3,1.7,0.9l0.9-0.8c-0.7-0.8-1.6-1.1-2.6-1.1c-1.6,0-3.2,0.9-3.2,2.7c0,1.6,1,2.2,2.3,2.6c1.7,0.6,2.5,0.8,2.5,1.9
			c0,1.1-1.1,1.6-2,1.6c-0.8,0-1.6-0.4-2-1l-1,0.8c0.6,0.9,1.8,1.3,2.9,1.3c1.7,0,3.3-0.9,3.3-2.7C93.3,61.9,91.9,61.4,90.4,61z"/>
		<path fill="#000" d="M119.9,64.9c-0.8,1-1.6,1.5-2.8,1.5c-1.6,0-3-1-3-2.7c0-1.3,1-2.2,2.1-2.7c-0.6-0.6-1.1-1.3-1.1-2.2
			c0-1.4,1.1-2.2,2.4-2.2c1.3,0,2.3,0.7,2.3,2.1c0,1.2-1,1.9-2,2.4l2,2.1l0.8-1.4h1.2l-1.4,2.2l2.2,2.2h-1.5L119.9,64.9z
			 M116.9,61.7c-0.8,0.4-1.7,1-1.7,2s0.8,1.8,1.8,1.8c1,0,1.6-0.6,2.2-1.3L116.9,61.7z M117.1,60.5c0.7-0.4,1.6-0.8,1.6-1.7
			c0-0.7-0.5-1.1-1.2-1.1c-0.7,0-1.4,0.5-1.4,1.3c0,0.5,0.3,0.9,0.7,1.2L117.1,60.5z"/>
		<path fill="#000" d="M149,59.4c0-2.3-1.9-2.6-3.7-2.6h-2.4v9.4h1.1v-4.4h1.4l2.5,4.4h1.4l-2.6-4.4
			C148.2,61.6,149,60.8,149,59.4z M145,60.8h-1v-2.9h1.6c1.1,0,2.3,0.2,2.3,1.6C147.8,61,146.2,60.8,145,60.8z M159.9,61.9h4.5v-1
			h-4.5v-2.9h4.8v-1h-5.9v9.4h6.1v-1h-5V61.9z M177.6,61c-1.5-0.5-2-0.9-2-1.7c0-1.1,1-1.6,2-1.6c0.7,0,1.3,0.3,1.7,0.9l0.9-0.8
			c-0.7-0.8-1.6-1.1-2.6-1.1c-1.6,0-3.2,0.9-3.2,2.7c0,1.6,1,2.2,2.3,2.6c1.7,0.6,2.5,0.8,2.5,1.9c0,1.1-1.1,1.6-2,1.6
			c-0.8,0-1.6-0.4-2-1l-1,0.8c0.6,0.9,1.8,1.3,2.9,1.3c1.7,0,3.3-0.9,3.3-2.7C180.4,61.9,179.1,61.4,177.6,61z M194.2,56.6
			c-2.9,0-4.9,2.1-4.9,4.9c0,2.8,2.1,4.9,4.9,4.9c2.9,0,4.9-2.1,4.9-4.9C199.2,58.7,197.1,56.6,194.2,56.6z M194.2,65.5
			c-2.2,0-3.7-1.7-3.7-3.9c0-2.2,1.5-3.9,3.7-3.9c2.2,0,3.7,1.7,3.7,3.9C198,63.7,196.4,65.5,194.2,65.5z M223.7,57.9h3.1v8.4h1.1
			v-8.4h3.1v-1h-7.3V57.9z M242.6,61c-1.5-0.5-2-0.9-2-1.7c0-1.1,1-1.6,2-1.6c0.7,0,1.3,0.3,1.7,0.9l0.9-0.8
			c-0.7-0.8-1.6-1.1-2.6-1.1c-1.6,0-3.2,0.9-3.2,2.7c0,1.6,1,2.2,2.3,2.6c1.7,0.6,2.5,0.8,2.5,1.9c0,1.1-1.1,1.6-2,1.6
			c-0.8,0-1.6-0.4-2-1l-1,0.8c0.6,0.9,1.8,1.3,2.9,1.3c1.7,0,3.3-0.9,3.3-2.7C245.4,61.9,244.1,61.4,242.6,61z M214.7,59.4
			c0-2.3-1.9-2.6-3.7-2.6h-2.4v9.4h1.1v-4.4h1.4l2.5,4.4h1.4l-2.6-4.4C213.9,61.6,214.7,60.8,214.7,59.4z M210.6,60.8h-1v-2.9h1.6
			c1.1,0,2.3,0.2,2.3,1.6C213.5,61,211.9,60.8,210.6,60.8z"/>
	</g>
	<path fill="#000" d="M32.8,35.7c-3-3.1-5.4-5.6-5.4-5.6l-9.9-10.3l4.1-4.4c3.2-3.4,6.5-7.6,11.5-8.1V6.7H21.8v0.7
		c2.9,0.3,3.8,1.7-0.8,6.9l-7,7.6l16.8,17.5c0,0,8.2,9.3,19.8,9.3c3,0,5.8-0.6,8.4-1.5c-1.6,0.3-3.3,0.5-5,0.5
		C44.6,47.7,37.8,40.9,32.8,35.7z M13.4,29.2V13.9c0.1-4.5,0.2-5.8,4.6-6.5V6.7H4.2v0.7c5.2,0.7,5.3,2,5.4,6.5v15.3
		c-0.1,4.5-0.2,5.8-5.4,6.5v0.7h15v-0.7C13.6,35,13.5,33.7,13.4,29.2z M65.1,30.6L55.6,5.1c-0.9,1.1-2,1.8-3.2,2.3
		c0.5,0.8-0.1,1.9-0.5,3l-2.6,7.1l-4.9,12.8c-1.3,3.4-1.7,4.3-5.6,5.3v0.7h11.9v-0.7c-2-0.3-5-0.3-5-3c0-2.1,1.9-6.6,2.7-8.8h9.9
		c1.1,3,2.8,7.1,2.8,9c0,2-1.8,2.4-3.4,2.8v0.7h12.8v-0.7C67,35,66.3,33.8,65.1,30.6z M49.1,21.9l4.1-11.3l4.5,11.3H49.1z
		 M108.5,35.8c-3-3.1-14.3-15.1-14.3-15.1c0.1,0,0.1,0,0.1,0c3.1-1.4,5.4-3.5,5.4-7.1c0-2.1-0.9-7.1-11.8-6.8L77.3,6.7v0.7
		c4.9,0.4,5.1,1.7,5.1,8.3v13.5c-0.1,4.5-0.2,5.8-5.4,6.5v0.7h15.3v-0.7c-6-0.8-6.1-1.7-6.1-6.5v-7.3c1.4,0.2,2.7,0.1,3.8,0
		l16.5,17.6c0,0,8.2,9.3,19.8,9.3c3,0,5.8-0.6,8.4-1.5c-1.6,0.3-3.3,0.5-5,0.5C120.5,47.7,113.6,40.9,108.5,35.8z M86.2,21.1V7.6
		c4.6,0,9.1,1.7,9.1,6.8C95.2,19.2,90.4,21.1,86.2,21.1z M131.2,35.7c-5.2-0.7-5.3-2-5.4-6.5V13.9c0.1-4.5,0.2-5.8,5.4-6.5V6.7
		h-14.6v0.7c5.2,0.7,5.3,2,5.4,6.5v15.3c-0.1,4.5-0.2,5.8-5.4,6.5v0.7h14.6V35.7z M146.2,12.3c0-2.9,2.3-4.8,5.1-4.8
		c4.3,0,5.4,3.4,6.1,6.9h0.7l0.3-6.5c-1.9-1-4.1-1.7-6.4-1.7c-4.7,0-9.7,3.2-9.7,8.3c0,8.7,13.3,8,13.3,15.8c0,3.4-2.5,5.3-5.7,5.3
		c-4.8,0-7.7-4.1-8.8-8.3h-0.8l1.3,7.4c2.2,1.4,5,2.2,7.7,2.2c5,0,10.6-2.9,10.6-8.5C159.9,19.5,146.2,19.8,146.2,12.3z M202.7,27.9
		l-1-15.8c-0.2-3,1.5-4.1,4.3-4.7V6.7h-9.6l-0.1,0.7c1,0.7,0.3,2.9-0.7,5.3L187.7,30l-8.3-18.5c-0.3-0.7-1.5-3.3-0.5-4.3l0-0.5h-9.4
		v0.7c2.6,0.2,5.1,1.2,4.8,4.1l-0.6,5.9l-1.6,12.2c-0.6,3.5-1,5.4-4.9,6.1v0.7h12.1v-0.7c-5.3-0.9-5.3-2.8-5.2-4.5
		c0.3-6.7,0.7-11.6,1.3-18.2h0.1l10.3,23.4h0.5l11.1-24.4h0.1l1.2,19c0.2,3.8-1.9,4.2-5.3,4.7v0.7h14.3v-0.7
		C203.1,34.9,203.1,33.9,202.7,27.9z M241,30.6l-9.6-25.5c-0.9,1.1-2,1.8-3.2,2.3c0.5,0.8-0.1,1.9-0.5,3l-2.6,7.1l-4.9,12.8
		c-1.3,3.4-1.7,4.3-5.6,5.3v0.7h11.9v-0.7c-2-0.3-5-0.3-5-3c0-2.1,1.9-6.6,2.7-8.8h9.9c1.1,3,2.8,7.1,2.8,9c0,2-1.8,2.4-3.4,2.8v0.7
		h12.8v-0.7C242.9,35,242.2,33.8,241,30.6z M225,21.9l4.1-11.3l4.5,11.3H225z"/>
</g>
</svg>
