<?xml version="1.0" encoding="utf-8"?>
<!-- Generator: Adobe Illustrator 18.1.1, SVG Export Plug-In . SVG Version: 6.00 Build 0)  -->
<svg version="1.0" id="Layer_1" xmlns="http://www.w3.org/2000/svg" xmlns:xlink="http://www.w3.org/1999/xlink" x="0px" y="0px"
	 viewBox="0 0 152 48" enable-background="new 0 0 152 48" xml:space="preserve">
<g>
	<path fill="#000" d="M86,24.3h4.6V11.6l8-0.5V7.8H78v3.3l8,0.5V24.3z M53.1,24.3l1.9-3.8H43.9V7.8h-4.7v16.5H53.1z M70.7,17.9
		h-6.1l3.1-6.6L70.7,17.9z M111.9,17.9h-6.1l3.1-6.6L111.9,17.9z M132.7,20.3c0.2,0.6,0.9,1,1.6,1h4.7l3.5-9.7l3.3,12.8h4.4
		l-3.7-14.6c-0.3-1.5-1.2-1.9-2.5-1.9h-4.6l-3.3,9.7l-2.6-8.2c-0.4-1-1-1.5-2-1.5h-5.2l-4.3,16.5h4.5l3.3-12.8L132.7,20.3z
		 M115,24.3h5l-7.8-15.4c-0.4-0.8-0.8-1.1-1.8-1.1H106l-8.3,16.5h5l1.5-3h9.2L115,24.3z M73.7,24.3h5L70.9,8.9
		c-0.4-0.8-0.8-1.1-1.8-1.1h-4.3l-8.3,16.5h5l1.5-3h9.2L73.7,24.3z"/>
	<g>
		<path fill="#000" d="M44.3,35.4h-0.8l-5.1,10.3l-0.1,0.1h1.4l1.4-2.8h6.2l1.4,2.8l0,0h1.4l-4.9-9.9
			C45,35.5,44.7,35.4,44.3,35.4z M46.7,41.8h-5l2.5-5.1L46.7,41.8z"/>
		<rect x="57.4" y="35.4" fill="#000" width="1.3" height="10.4"/>
		<path fill="#000" d="M76.4,38.7c0-2.1-1.6-3.4-4.1-3.4H67v10.4h1.3V42c0.7,0.3,1.9,0.6,3,0.6c0.5,0,1,0,1.5-0.1l2.1,3.3l0,0
			h1.6l-2.3-3.7C75.6,41.5,76.4,40.3,76.4,38.7z M68.3,36.6h3.9c2.6,0,2.9,1.5,2.9,2.1c0,1.6-1.4,2.5-3.9,2.5c-1,0-2.1-0.2-2.9-0.6
			V36.6z"/>
		<polygon fill="#000" points="85.1,35.4 83.8,35.4 83.8,45.8 91.3,45.8 91.3,44.6 85.1,44.6 		"/>
		<rect x="98.5" y="35.4" fill="#000" width="1.3" height="10.4"/>
		<path fill="#000" d="M117.3,43.9l-7.7-8.3c-0.1-0.1-0.2-0.2-0.4-0.2h-1v10.4h1.3v-8.6l7.7,8.3c0.1,0.2,0.3,0.2,0.5,0.2h0.9
			V35.4h-1.3V43.9z"/>
		<polygon fill="#000" points="128.1,41 134.1,41 134.1,39.8 128.1,39.8 128.1,36.6 134.8,36.6 134.8,35.4 126.8,35.4 
			126.8,45.8 134.9,45.8 134.9,44.6 128.1,44.6 		"/>
		<path fill="#000" d="M146.7,40l-0.8-0.1c-1.8-0.3-2.5-0.8-2.5-1.7c0-1,1.2-1.7,3.1-1.7c1.7,0,2.8,0.4,3.3,0.6l0.1,0l0.4-1.2
			l0-0.1l-0.1,0c-0.6-0.2-1.9-0.6-3.6-0.6c-2.7,0-4.5,1.2-4.5,3c0,1.5,1.1,2.4,3.5,2.8l0.8,0.1c2,0.4,2.9,0.9,2.9,1.8
			c0,1.1-1.1,1.8-3.1,1.8c-2.1,0-3.6-0.6-4-0.9l-0.1-0.1l-0.4,1.2l0,0c0.5,0.3,2.1,1,4.3,1c2.9,0,4.6-1.2,4.6-3.1
			C150.6,41.4,149.4,40.4,146.7,40z"/>
	</g>
	<g>
		<path fill="#aaa" d="M22.4,10.5L9,5.7C7.6,5.2,6.8,4.4,6.8,3V0.4c0-0.7,0.5-0.4,1.1-0.2c4.5,1.6,18.7,6.7,19.9,7.1
			c0.2,0.1,0.3,0.1,0.4,0.2c0.4,0.3,0,0.8-1.5,1.3C26.5,9,24.8,9.6,22.4,10.5 M22.4,18.8c2.3-0.8,4-1.5,4.3-1.6
			c1.7-0.6,2-1.2,1.2-1.5c0,0,0.1,0,0.1,0c-0.1,0-0.1-0.1-0.2-0.1c-0.2-0.1-1.3-0.5-2.9-1.1c-1.8,0.7-4.4,1.6-7,2.5L22.4,18.8z
			 M0,17.7c0,0.6,0.3,0.7,0.9,0.5c0.3-0.1,0.8-0.3,1.4-0.5c0.2-0.1,0.3-0.1,0.5-0.2l0,0c1-0.4,2.3-0.8,3.7-1.3
			c-2.3-0.8-4.5-1.6-5.7-2.1C0.3,14,0,14.1,0,14.7v2.4V17.7z M2.1,11.4l8.8,3.2c2.3-0.8,4.7-1.7,7-2.5C11.4,9.7,3.6,6.9,1.1,6
			C0.5,5.7,0,5.5,0,6.1v2.5C0,10.1,0.8,10.9,2.1,11.4"/>
		<path fill="#000" d="M27.7,21.9L6.7,29.5v-5.1c0,0,18.9-6.9,20-7.2c1.7-0.6,2-1.2,1.2-1.5c0.8,0.3,0.7,0.4,0.7,2.6
			C28.7,20.7,28.7,21.5,27.7,21.9 M11.6,41.1c0-1.1,0.1-2-0.8-1.6l-4,1.5v5l3.8-1.4c1-0.4,1.1-1.1,1.1-2.1V41.1z M17.9,30.6
			c0-1.1,0.1-2-0.8-1.6L6.7,32.7v5l10.1-3.6c1-0.4,1.1-1.1,1.1-2.1V30.6z M28,7.4c0.8,0.3,0.5,0.9-1.2,1.5C25.9,9.2,9,15.3,2.8,17.6
			v0c-0.2,0.1-0.3,0.1-0.5,0.2c-0.6,0.2-1.1,0.4-1.4,0.5C0.3,18.4,0,18.3,0,17.7c0,0.4,0,1.2,0.7,1.4l5.5,2c0,0,0.4,0.1,0.8,0
			c0.5-0.2,20.7-7.5,20.7-7.5c1-0.4,1-1.2,1-3.6C28.7,7.8,28.7,7.7,28,7.4"/>
	</g>
</g>
</svg>
