<?xml version="1.0" encoding="utf-8"?>
<!-- Generator: Adobe Illustrator 18.0.0, SVG Export Plug-In . SVG Version: 6.00 Build 0)  -->
<!DOCTYPE svg PUBLIC "-//W3C//DTD SVG 1.1//EN" "http://www.w3.org/Graphics/SVG/1.1/DTD/svg11.dtd">
<svg version="1.1" id="Layer_1" xmlns="http://www.w3.org/2000/svg" xmlns:xlink="http://www.w3.org/1999/xlink" x="0px" y="0px"
	 viewBox="0 0 841.9 595.3" enable-background="new 0 0 841.9 595.3" xml:space="preserve">
<g>
	<g>
		<g>
			<path d="M94.6,356.6h8.4v58.7h-8.4v-25.5H61.7v25.5h-8.4v-58.7h8.4V382h32.9V356.6z"/>
			<path d="M153.4,355.9c9,0,16.6,2.9,22.6,8.6c6,5.7,9,12.9,9,21.6c0,8.6-3,15.8-9.1,21.5c-6.1,5.6-13.8,8.4-23,8.4
				c-8.8,0-16.2-2.8-22-8.4c-5.9-5.6-8.8-12.7-8.8-21.3c0-8.7,3-16,8.9-21.8C136.8,358.7,144.2,355.9,153.4,355.9z M153.7,363.8
				c-6.7,0-12.2,2.1-16.5,6.3c-4.4,4.2-6.5,9.5-6.5,16c0,6.3,2.1,11.6,6.5,15.7c4.4,4.2,9.7,6.3,16.3,6.3c6.5,0,12-2.1,16.4-6.4
				c4.4-4.3,6.6-9.6,6.6-16c0-6.2-2.2-11.5-6.6-15.6C165.4,365.9,160.1,363.8,153.7,363.8z"/>
			<path d="M193.4,356.5h48.9v7.5h-20.4v51.3h-8.4V364h-20.1V356.5z"/>
			<path d="M258.8,356.6h33.2v7.5h-24.9V382h24v7.5h-24v18.3h25.6v7.5h-34V356.6z"/>
			<path d="M310.4,356.6h8.4v51h26.4v7.7h-34.8L310.4,356.6L310.4,356.6z"/>
			<path d="M375.7,390.7l-6.4-3.9c-4-2.4-6.9-4.9-8.5-7.2c-1.7-2.3-2.5-5.1-2.5-8.2c0-4.7,1.7-8.4,4.9-11.3
				c3.2-2.9,7.4-4.3,12.5-4.3c4.9,0,9.4,1.4,13.5,4.1v9.5c-4.2-4.1-8.7-6.1-13.6-6.1c-2.7,0-5,0.6-6.8,1.9c-1.7,1.3-2.6,2.9-2.6,4.9
				c0,1.7,0.7,3.4,1.9,5c1.3,1.6,3.4,3.1,6.2,4.9l6.4,3.8c7.2,4.3,10.7,9.7,10.7,16.3c0,4.7-1.6,8.5-4.8,11.5
				c-3.1,2.9-7.3,4.4-12.3,4.4c-5.8,0-11.1-1.7-15.8-5.3v-10.7c4.6,5.7,9.8,8.6,15.7,8.6c2.6,0,4.9-0.8,6.6-2.2
				c1.7-1.5,2.6-3.3,2.6-5.5C383.3,397.3,380.8,393.9,375.7,390.7z"/>
			<path d="M53.4,445.4h8.4v58.7h-8.4V445.4z"/>
			<path d="M128.3,445.4h8v58.7h-7.2l-39.2-45.2v45.2H82v-58.7h6.8l39.5,45.5C128.3,490.9,128.3,445.4,128.3,445.4z"/>
			<path d="M150.7,445.3h48.9v7.5h-20.4v51.3h-8.4v-51.3h-20.1C150.7,452.8,150.7,445.3,150.7,445.3z"/>
			<path d="M214.5,445.4h33.2v7.5h-24.9v17.9h24v7.5h-24v18.2h25.6v7.5h-34L214.5,445.4L214.5,445.4z"/>
			<path d="M264.6,504.1v-58.7h14.7c5.9,0,10.7,1.5,14.1,4.4c3.5,2.9,5.2,6.9,5.2,11.9c0,3.4-0.9,6.4-2.5,8.8
				c-1.7,2.5-4.2,4.4-7.4,5.6c1.8,1.3,3.7,2.9,5.5,5.1c1.7,2.1,4.3,5.8,7.6,11.2c2,3.3,3.7,5.8,5,7.5l3.1,4.2h-10l-2.5-3.9
				c-0.1-0.1-0.3-0.4-0.5-0.7l-1.7-2.3l-2.6-4.3l-2.8-4.6c-1.7-2.4-3.3-4.4-4.8-5.7c-1.5-1.5-2.7-2.4-3.9-3.1c-1.2-0.6-3.1-1-5.8-1
				h-2.1v25.5L264.6,504.1L264.6,504.1z M275.4,452.5h-2.5V471h3.2c4.3,0,7.2-0.4,8.7-1.1c1.6-0.8,2.8-1.8,3.7-3.3s1.4-3.1,1.4-5.1
				c0-1.8-0.5-3.5-1.5-5c-1-1.5-2.3-2.5-4.2-3.2C282.5,452.8,279.5,452.5,275.4,452.5z"/>
			<path d="M369.6,445.4h8v58.7h-7.2l-39.2-45.2v45.2h-7.9v-58.7h6.8l39.5,45.5L369.6,445.4L369.6,445.4z"/>
			<path d="M415.8,445h5.9L448,504h-8.6l-7.8-17.4h-25.1l-7.3,17.4h-8.6L415.8,445z M428.1,479.2l-9.4-21.3l-8.7,21.3H428.1z"/>
			<path d="M447.6,445.3h48.9v7.5h-20.4v51.3h-8.4v-51.3h-20.1L447.6,445.3L447.6,445.3z"/>
			<path d="M511.5,445.4h8.4v58.7h-8.4V445.4z"/>
			<path d="M568.5,444.5c9,0,16.6,2.8,22.6,8.6c6,5.7,9,12.9,9,21.6s-3,15.8-9.1,21.5c-6,5.6-13.8,8.4-23,8.4
				c-8.8,0-16.2-2.8-22-8.4c-5.9-5.6-8.8-12.7-8.8-21.3c0-8.7,2.9-16,8.8-21.8C552,447.4,559.5,444.5,568.5,444.5z M568.8,452.5
				c-6.7,0-12.2,2.1-16.5,6.3c-4.3,4.2-6.5,9.5-6.5,16c0,6.3,2.1,11.6,6.5,15.8c4.4,4.2,9.7,6.3,16.3,6.3c6.5,0,11.9-2.1,16.3-6.4
				c4.4-4.3,6.6-9.6,6.6-16c0-6.2-2.1-11.5-6.6-15.6C580.6,454.6,575.2,452.5,568.8,452.5z"/>
			<path d="M664,445.4h8v58.7h-7.2l-39.1-45.2v45.2h-7.9v-58.7h6.8l39.5,45.5L664,445.4L664,445.4z"/>
			<path d="M710,445h5.9l26.3,58.9h-8.5l-7.8-17.4h-25l-7.3,17.4h-8.6L710,445z M722.4,479.2l-9.4-21.3l-8.7,21.3H722.4z"/>
			<path d="M755.6,445.4h8.4v51h26.4v7.7h-34.8V445.4z"/>
		</g>
	</g>
	<path d="M53.5,302.3l32.3-165.1l52.7,119.4l54.6-119.4l29,165.1h-23.8l-14.9-92.6l-45.4,99.7L94,209.6l-16.5,92.7H53.5z"/>
	<path d="M373.8,170.6h-61.6v36.9H372v21.8h-59.7v51.3h61.6v21.9h-84.7V148.8h84.7L373.8,170.6L373.8,170.6z"/>
	<path d="M461.9,148.8v131.8h45.2v21.8h-68.3V148.8H461.9z"/>
	<path d="M586.6,148.8v153.5h-23.2V148.8H586.6z"/>
	<path d="M687.4,117.1l-13-11l2.9-4.1c1.8-2.6,3.7-4.9,5.3-6.7c1.7-1.8,3.5-3.3,5.2-4.5c1.7-1.2,3.6-1.9,5.5-2.5
		c1.9-0.5,4-0.8,6.2-0.8c5.1,0,11.2,1.7,18,5.1c6.9,3.5,11.4,5.2,13.3,5.2c3.7,0,7.9-3.6,12.3-10.8l12.6,10.5
		c-6.4,12.7-15,19.1-25.8,19.1c-3.7,0-9.8-1.8-18.2-5.5c-6-3-10.5-4.6-13.5-4.6C694.8,106.9,691.1,110.3,687.4,117.1z"/>
	<path d="M716.3,139.2l-75.9,163.2h25l17.1-37.3h65.7l16.1,37.3h25.3L716.3,139.2z M692,243.3l23.9-52.2l22.8,52.2H692z"/>
</g>
<rect y="-121.6" fill="none" width="841.9" height="838.5"/>
</svg>
