<?xml version="1.0" encoding="UTF-8" standalone="no"?>
<!-- Created with Inkscape (http://www.inkscape.org/) -->

<svg
   xmlns:dc="http://purl.org/dc/elements/1.1/"
   xmlns:cc="http://creativecommons.org/ns#"
   xmlns:rdf="http://www.w3.org/1999/02/22-rdf-syntax-ns#"
   xmlns:svg="http://www.w3.org/2000/svg"
   xmlns="http://www.w3.org/2000/svg"
   xmlns:sodipodi="http://sodipodi.sourceforge.net/DTD/sodipodi-0.dtd"
   xmlns:inkscape="http://www.inkscape.org/namespaces/inkscape"
   width="57.98"
   height="24.370001"
   id="svg16730"
   version="1.1"
   inkscape:version="0.48.1 "
   sodipodi:docname="Neues Dokument 7">
  <defs
     id="defs16732" />
  <sodipodi:namedview
     id="base"
     pagecolor="#ffffff"
     bordercolor="#666666"
     borderopacity="1.0"
     inkscape:pageopacity="0.0"
     inkscape:pageshadow="2"
     inkscape:zoom="15.970346"
     inkscape:cx="28.989995"
     inkscape:cy="12.184996"
     inkscape:document-units="px"
     inkscape:current-layer="layer1"
     showgrid="false"
     fit-margin-top="0"
     fit-margin-left="0"
     fit-margin-right="0"
     fit-margin-bottom="0"
     inkscape:window-width="1024"
     inkscape:window-height="678"
     inkscape:window-x="-4"
     inkscape:window-y="-4"
     inkscape:window-maximized="1" />
  <metadata
     id="metadata16735">
    <rdf:RDF>
      <cc:Work
         rdf:about="">
        <dc:format>image/svg+xml</dc:format>
        <dc:type
           rdf:resource="http://purl.org/dc/dcmitype/StillImage" />
        <dc:title></dc:title>
      </cc:Work>
    </rdf:RDF>
  </metadata>
  <g
     inkscape:label="Ebene 1"
     inkscape:groupmode="layer"
     id="layer1"
     transform="translate(-209.2307,-426.35677)">
    <g
       id="g12376"
       transform="matrix(1.25,0,0,-1.25,244.17762,435.8524)">
      <path
         inkscape:connector-curvature="0"
         d="m 0,0 0,6.795 -9.541,0 0,-8.045 c 0,0 0.85,0.785 2.019,0.862 1.671,0.11 2.362,-0.706 3.947,-0.976 1.939,-0.33 3.206,0.861 3.502,1.206 0.073,0.089 0.061,0.112 0.07,0.132 L 0,0"
         style="fill:#000;fill-opacity:1;fill-rule:nonzero;stroke:none"
         id="path12378" />
    </g>
    <g
       id="g12380"
       transform="matrix(1.25,0,0,-1.25,233.38262,435.5874)">
      <path
         inkscape:connector-curvature="0"
         d="m 0,0 c 0.32,0.168 0.604,0.254 1.278,0.293 1.627,0.094 2.234,-0.51 3.774,-0.748 1.209,-0.188 1.891,0.082 2.406,0.412 C 7.731,0.132 7.659,0.086 7.802,0.205 7.929,0.311 7.96,0.385 7.941,0.458 7.936,0.481 7.912,0.481 7.866,0.45 7.83,0.427 7.76,0.38 7.76,0.38 6.549,-0.465 4.962,0.032 3.575,0.467 2.284,0.872 0.7,0.694 -0.018,0.183 c 0,0 -0.085,-0.055 -0.145,-0.147 -0.02,-0.03 -0.066,-0.154 -0.009,-0.128 C -0.107,-0.061 -0.053,-0.024 0,0 m 1.884,2.103 -1.372,1.802 0,-1.802 -0.616,0 0,2.833 0.575,0 1.328,-1.744 0,1.744 0.616,0 0,-2.833 -0.531,0"
         style="fill:#ffffff;fill-opacity:1;fill-rule:nonzero;stroke:none"
         id="path12382" />
    </g>
    <g
       id="g12384"
       transform="matrix(1.25,0,0,-1.25,238.71512,433.0199)">
      <path
         inkscape:connector-curvature="0"
         d="m 0,0 c -0.834,0 -1.453,0.643 -1.453,1.457 l 0,0.009 c 0,0.805 0.607,1.465 1.477,1.465 0.534,0 0.854,-0.178 1.118,-0.437 L 0.745,2.036 C 0.526,2.235 0.303,2.356 0.02,2.356 -0.457,2.356 -0.8,1.959 -0.8,1.474 l 0,-0.008 c 0,-0.486 0.334,-0.891 0.82,-0.891 0.324,0 0.522,0.129 0.745,0.332 L 1.162,0.506 C 0.87,0.194 0.546,0 0,0 m 1.574,0.049 0,2.834 0.624,0 0,-2.267 1.413,0 0,-0.567 -2.037,0"
         style="fill:#ffffff;fill-opacity:1;fill-rule:nonzero;stroke:none"
         id="path12386" />
    </g>
    <g
       id="g12388"
       transform="matrix(1.25,0,0,-1.25,213.98132,445.0949)">
      <path
         inkscape:connector-curvature="0"
         d="M 0,0 -2.072,2.72 -2.072,0 -3,0 l 0,4.278 0.867,0 2.005,-2.634 0,2.634 0.928,0 L 0.8,0 0,0 m 5.812,2.139 c 0,0.734 -0.538,1.345 -1.295,1.345 -0.757,0 -1.283,-0.6 -1.283,-1.333 l 0,-0.012 c 0,-0.734 0.538,-1.344 1.296,-1.344 0.756,0 1.282,0.599 1.282,1.332 l 0,0.012 z M 4.517,-0.073 c -1.32,0 -2.267,0.984 -2.267,2.2 l 0,0.012 c 0,1.216 0.96,2.213 2.28,2.213 1.319,0 2.266,-0.985 2.266,-2.201 l 0,-0.012 c 0,-1.216 -0.959,-2.212 -2.279,-2.212 m 6.226,2.89 c 0,0.403 -0.281,0.611 -0.739,0.611 l -0.936,0 0,-1.229 0.954,0 c 0.458,0 0.721,0.245 0.721,0.606 l 0,0.012 z m -0.018,-2.818 -0.917,1.37 -0.74,0 0,-1.37 -0.94,0 0,4.278 1.955,0 c 1.009,0 1.614,-0.531 1.614,-1.411 l 0,-0.013 c 0,-0.69 -0.373,-1.124 -0.917,-1.326 l 1.045,-1.528 -1.1,0 m 7.04,-0.03 -0.819,0 -0.965,2.8 -0.966,-2.8 -0.818,0 -1.46,4.309 1.008,0 0.886,-2.897 0.958,2.909 0.807,0 0.959,-2.909 0.886,2.897 0.984,0 -1.46,-4.309 M 20.353,0 l 0,4.278 3.227,0 0,-0.837 -2.292,0 0,-0.868 2.017,0 0,-0.837 -2.017,0 0,-0.899 2.322,0 0,-0.837 -3.257,0 m 6.584,-0.074 c -1.332,0 -2.248,0.935 -2.248,2.2 l 0,0.012 c 0,1.217 0.946,2.213 2.242,2.213 0.77,0 1.235,-0.208 1.681,-0.587 L 28.019,3.049 c -0.33,0.275 -0.623,0.434 -1.119,0.434 -0.684,0 -1.228,-0.605 -1.228,-1.332 l 0,-0.013 c 0,-0.782 0.538,-1.356 1.296,-1.356 0.342,0 0.648,0.086 0.886,0.256 l 0,0.612 -0.947,0 0,0.812 1.858,0 0,-1.858 C 28.325,0.232 27.72,-0.074 26.937,-0.074 M 30.233,0 l 0.94116,0 0,4.278 -0.94116,0 0,-4.278 z m 4.353,3.177 -0.568,-1.387 1.135,0 -0.567,1.387 z m 1.294,-3.178 -0.481,0.96 -1.717,0 -0.392,-0.96 -0.959,0 1.833,4.309 0.867,0 1.833,-4.309 -0.984,0 M 40.983,0 l -2.072,2.72 0,-2.72 -0.928,0 0,4.278 0.867,0 2.004,-2.634 0,2.634 0.929,0 0,-4.278 -0.8,0 M 9.075,-3.704 c -0.63,0 -1.097,0.486 -1.097,1.1 l 0,0.006 c 0,0.608 0.458,1.107 1.115,1.107 0.404,0 0.645,-0.135 0.844,-0.33 l -0.3,-0.346 c -0.164,0.15 -0.333,0.242 -0.547,0.242 -0.36,0 -0.62,-0.3 -0.62,-0.667 l 0,-0.006 c 0,-0.366 0.254,-0.672 0.62,-0.672 0.245,0 0.395,0.097 0.563,0.25 L 9.952,-3.322 C 9.732,-3.558 9.488,-3.704 9.075,-3.704"
         style="fill:#000;fill-opacity:1;fill-rule:nonzero;stroke:none"
         id="path12390" />
    </g>
    <path
       d="m 228.90642,447.9174 c 0,-0.2525 -0.175,-0.3825 -0.4625,-0.3825 l -0.58375,0 0,0.76875 0.59625,0 c 0.28625,0 0.45,-0.1525 0.45,-0.37875 z m -0.0112,1.76125 -0.5725,-0.855 -0.4625,0 0,0.855 -0.58875,0 0,-2.67375 1.2225,0 c 0.63125,0 1.00875,0.33125 1.00875,0.8825 l 0,0.006 c 0,0.4325 -0.2325,0.70375 -0.5725,0.83 l 0.6525,0.955 -0.6875,0 m 2.63625,0.0425 c -0.71875,0 -1.1575,-0.40125 -1.1575,-1.18875 l 0,-1.5275 0.5875,0 0,1.5125 c 0,0.43625 0.21875,0.66125 0.5775,0.66125 0.35875,0 0.57625,-0.2175 0.57625,-0.6425 l 0,-1.53125 0.58875,0 0,1.50875 c 0,0.81 -0.455,1.2075 -1.1725,1.2075 m 2.18125,-0.0412 0.58869,0 0,-2.675 -0.58869,0 z m 2.58875,0.0375 c -0.405,0 -0.81375,-0.14125 -1.135,-0.4275 l 0.3475,-0.4163 c 0.24125,0.19875 0.49375,0.325 0.79875,0.325 0.24125,0 0.38625,-0.0962 0.38625,-0.2525 l 0,-0.007 c 0,-0.14875 -0.0913,-0.22625 -0.53875,-0.34 -0.53875,-0.1375 -0.88625,-0.2875 -0.88625,-0.81875 l 0,-0.007 c 0,-0.485 0.39,-0.805 0.93625,-0.805 0.38875,0 0.7225,0.12125 0.99375,0.33875 l -0.30625,0.44375 c -0.2375,-0.165 -0.47,-0.26375 -0.695,-0.26375 -0.22625,0 -0.345,0.10375 -0.345,0.2325 l 0,0.009 c 0,0.175 0.115,0.2325 0.5775,0.35125 0.5425,0.14125 0.84875,0.33625 0.84875,0.8025 l 0,0.007 c 0,0.53125 -0.40625,0.82875 -0.9825,0.82875 m 1.875,-0.0375 0,-2.675 2.0175,0 0,0.52375 -1.43375,0 0,0.5425 1.26125,0 0,0.52375 -1.26125,0 0,0.56125 1.4525,0 0,0.52375 -2.03625,0 m 4.47,0 0,-2.675 0.58875,0 0,2.14 1.33375,0 0,0.535 -1.9225,0 m 2.7725,0 0.58899,0 0,-2.675 -0.58899,0 z m 3.51375,0 -1.29375,-1.7 0,1.7 -0.58125,0 0,-2.675 0.54375,0 1.25125,1.6475 0,-1.6475 0.58,0 0,2.675 -0.5,0 m 1.52375,0 0,-2.675 2.0175,0 0,0.52375 -1.4325,0 0,0.5425 1.26125,0 0,0.52375 -1.26125,0 0,0.56125 1.4525,0 0,0.52375 -2.0375,0"
       style="fill:#000;fill-opacity:1;fill-rule:nonzero;stroke:none"
       id="path12394"
       inkscape:connector-curvature="0"
       sodipodi:nodetypes="ssccsssccccccsssccccsccsssccscccccccccssscsssccssscsscccccccccccccccccccccccccccccccccccccccccccccccccc" />
  </g>
</svg>
