<?xml version="1.0" standalone="no"?>
<!DOCTYPE svg PUBLIC "-//W3C//DTD SVG 20010904//EN"
 "http://www.w3.org/TR/2001/REC-SVG-20010904/DTD/svg10.dtd">
<svg version="1.0" xmlns="http://www.w3.org/2000/svg"
 width="5100.000000pt" height="1950.000000pt" viewBox="0 0 5100.000000 1950.000000"
 preserveAspectRatio="xMidYMid meet">
<metadata>
Created by potrace 1.13, written by Peter Selinger 2001-2015
</metadata>
<g transform="translate(0.000000,1950.000000) scale(0.100000,-0.100000)"
fill="#000" stroke="none">
<path d="M23962 19089 c-2655 -58 -5552 -410 -8022 -975 -1978 -453 -3582
-1013 -4795 -1677 -1569 -858 -2435 -1785 -2599 -2782 -24 -146 -28 -199 -28
-361 1 -716 304 -1346 951 -1977 424 -413 913 -767 1544 -1115 2092 -1158
5002 -1969 8652 -2412 1439 -175 2823 -273 4550 -321 563 -16 2254 -17 2695
-1 1336 48 2278 115 3590 258 3011 326 5476 878 7508 1681 669 264 1386 609
1949 939 557 326 1017 678 1365 1045 302 318 480 565 638 884 299 601 327
1232 83 1845 -259 653 -839 1284 -1713 1865 -199 132 -308 197 -702 413 -1754
965 -3931 1625 -7133 2161 -1739 291 -3366 447 -5355 511 -866 28 -2363 37
-3178 19z m2048 -1149 c1348 -56 2143 -133 3075 -296 1734 -304 3404 -874
4511 -1539 1276 -767 1958 -1628 2054 -2594 83 -845 -371 -1714 -1276 -2437
-840 -672 -2124 -1276 -3585 -1688 -2032 -573 -4399 -791 -6844 -630 -2199
144 -4216 594 -5793 1293 -703 312 -1334 695 -1842 1120 -151 126 -444 419
-552 551 -450 554 -656 1133 -617 1738 20 318 89 571 239 877 462 942 1638
1835 3215 2442 1513 582 3197 960 4910 1102 694 58 1884 86 2505 61z"/>
<path d="M2405 5264 c-400 -15 -896 -71 -1165 -130 -403 -90 -641 -214 -719
-377 -66 -136 -63 -43 -65 -1942 -1 -1808 -1 -1810 43 -1910 113 -255 520
-395 1351 -464 969 -81 2047 -79 2885 4 693 70 1051 188 1195 396 65 96 61
-47 62 1938 1 1656 0 1812 -16 1875 -23 97 -48 147 -97 201 -197 213 -696 331
-1650 391 -229 14 -1577 27 -1824 18z m1133 -470 c154 -27 244 -71 284 -140
28 -49 40 -185 34 -395 -14 -470 -18 -2290 -6 -2634 14 -395 7 -511 -34 -602
-62 -134 -241 -180 -651 -167 -215 6 -303 16 -380 43 -154 54 -198 149 -197
429 0 75 4 848 9 1717 8 1575 8 1580 29 1620 42 81 169 127 394 144 155 12
407 4 518 -15z"/>
<path d="M23277 5220 c-20 -5 -49 -18 -64 -27 -14 -10 -227 -238 -472 -507
-626 -689 -1265 -1376 -1278 -1376 -2 0 -3 424 -3 941 1 593 -2 945 -8 951
-12 12 -2232 16 -2281 4 l-34 -8 6 -511 c4 -281 7 -1344 7 -2364 l0 -1853
1155 0 1155 0 2 1033 3 1032 111 -185 c61 -102 262 -448 446 -770 342 -596
444 -770 582 -987 l78 -123 1224 0 c1179 0 1224 1 1215 18 -61 113 -526 882
-981 1622 -504 819 -700 1141 -700 1151 0 6 107 124 238 262 341 361 586 626
1012 1092 205 226 412 447 458 493 47 47 82 89 80 98 -3 14 -31 15 -228 12
-395 -5 -1248 -3 -1470 4 -129 4 -230 3 -253 -2z"/>
<path d="M50095 5218 c-132 -4 -528 -5 -880 -2 -565 6 -642 5 -653 -9 -18 -22
-150 -244 -429 -722 -406 -696 -605 -1027 -614 -1018 -4 4 -132 226 -285 493
-317 556 -478 831 -632 1080 l-108 175 -1223 3 c-1033 2 -1222 0 -1218 -12 8
-19 491 -753 878 -1331 533 -798 856 -1271 969 -1420 58 -77 116 -165 130
-195 l24 -55 -3 -867 -3 -868 909 0 c501 0 1024 3 1164 7 l254 6 -4 867 -3
868 299 448 c165 247 445 665 623 929 607 901 1069 1612 1054 1623 -5 4 -117
4 -249 0z"/>
<path d="M10937 5076 c-86 -218 -197 -520 -437 -1186 -120 -333 -374 -1037
-565 -1565 -285 -790 -543 -1508 -646 -1802 l-18 -53 833 0 833 0 53 197 c86
320 206 739 248 863 l39 115 124 8 c68 4 391 7 717 5 514 -3 594 -5 602 -18 6
-8 96 -275 201 -592 l190 -578 1220 0 c670 0 1219 2 1219 4 0 18 -1823 4673
-1852 4729 -8 16 -83 17 -1357 17 l-1348 0 -56 -144z m1073 -1251 c127 -343
565 -1615 558 -1620 -2 -1 -136 1 -298 4 -162 4 -425 4 -585 1 -159 -4 -292
-5 -294 -3 -6 5 96 362 256 898 74 248 164 554 199 680 80 283 75 267 79 263
2 -2 41 -102 85 -223z"/>
<path d="M28755 2845 l0 -2375 2308 0 2307 0 0 313 0 314 -172 6 c-95 4 -613
7 -1150 7 l-978 0 0 2055 0 2055 -1157 0 -1158 0 0 -2375z"/>
<path d="M36810 2845 l0 -2375 2265 0 2265 0 0 305 0 305 -1002 0 c-552 0
-1047 3 -1100 7 l-98 6 0 749 0 748 853 0 852 0 -3 278 c-2 152 -6 279 -9 282
-2 2 -386 6 -854 8 l-849 4 0 567 c0 311 3 637 7 724 l6 157 1104 0 1103 0 -2
303 -3 302 -2267 3 -2268 2 0 -2375z"/>
</g>
</svg>
