<?xml version="1.0" encoding="UTF-8" standalone="no"?>
<!-- Created with Inkscape (http://www.inkscape.org/) -->

<svg xmlns:dc="http://purl.org/dc/elements/1.1/" xmlns:cc="http://creativecommons.org/ns#" xmlns:rdf="http://www.w3.org/1999/02/22-rdf-syntax-ns#" xmlns:svg="http://www.w3.org/2000/svg" xmlns="http://www.w3.org/2000/svg" xmlns:sodipodi="http://sodipodi.sourceforge.net/DTD/sodipodi-0.dtd" xmlns:inkscape="http://www.inkscape.org/namespaces/inkscape" width="1000" height="1455" id="svg3063" version="1.1" inkscape:version="0.48.5 r10040" sodipodi:docname="New document 2">
  <defs id="defs3065" />
  <sodipodi:namedview id="base" pagecolor="#ffffff" bordercolor="#666666" borderopacity="1.0" inkscape:pageopacity="0.0" inkscape:pageshadow="2" inkscape:zoom="0.35355339" inkscape:cx="976.71112" inkscape:cy="594.55959" inkscape:document-units="px" inkscape:current-layer="layer1" showgrid="false" fit-margin-top="0" fit-margin-left="0" fit-margin-right="0" fit-margin-bottom="0" inkscape:object-paths="false" inkscape:window-width="1366" inkscape:window-height="706" inkscape:window-x="-8" inkscape:window-y="-8" inkscape:window-maximized="1" />
  <metadata id="metadata3068">
    <rdf:RDF>
      <cc:Work rdf:about="">
        <dc:format>image/svg+xml</dc:format>
        <dc:type rdf:resource="http://purl.org/dc/dcmitype/StillImage" />
        <dc:title></dc:title>
      </cc:Work>
    </rdf:RDF>
  </metadata>
  <g inkscape:label="Layer 1" inkscape:groupmode="layer" id="layer1" transform="translate(-135.41925,583.0132)">
    <g id="text3141" style="font-size:30px;font-style:normal;font-weight:bold;text-align:start;text-anchor:start;fill:navy;font-family:Gotham Black" transform="matrix(5.6956046,0,0,5.7603967,-1277.173,570.00134)" />
    <g id="text3145" style="font-size:30px;font-style:normal;font-weight:bold;text-align:start;text-anchor:start;fill:navy;font-family:Gotham Black" transform="matrix(5.6956046,0,0,5.7603967,-1277.173,570.00134)" />
    <g id="g3328">
      <g transform="matrix(2.1501372,0,0,2.1509725,-155.7507,-1003.6328)" id="g3278">
        <path style="fill:#000;fill-opacity:1;stroke:none" d="m 358.59375,195.54968 c -0.96078,-0.007 -1.94863,0.0211 -2.90625,0.0312 -29.1992,0.30936 -58.74158,7.17006 -85.96875,20.15625 0,0 4.23309,-1.0856 7.125,-1.0625 0.41313,0.003 0.7827,0.007 1.125,0.0625 2.80309,0.45052 5.46315,1.90089 7.71875,3.625 3.18896,2.43754 4.34598,7.11143 7.78125,9.1875 2.78973,1.68594 6.30702,1.96115 9.5625,2.125 6.99313,0.35197 13.85077,-2.14506 20.84375,-2.5 7.06296,-0.35849 14.21833,-0.62899 21.21875,0.375 10.3441,1.48354 20.59461,4.24098 30.21875,8.3125 11.33638,4.79588 21.8935,11.47262 31.84375,18.71875 9.75089,7.10095 18.33491,15.70324 27.03125,24.0625 12.58381,12.09604 22.69268,26.80239 36.3125,37.71875 5.59202,4.48204 11.32632,8.27839 18.375,11.1875 10.06902,4.15565 31.875,7.15625 31.875,7.15625 l 9.125,2.28125 c 4.74255,0.7867 9.04101,1.87337 12.84375,3.21875 l 0.21875,0.0625 c 3.47508,1.24499 6.52774,2.73111 9.125,4.4375 -7.04875,-23.26725 -19.25852,-45.45297 -32.71875,-65.28125 -33.72937,-49.6868 -100.22058,-83.45217 -160.75,-83.875 z" id="path3124" inkscape:connector-curvature="0" />
        <path style="fill:#000;fill-opacity:1;stroke:none" d="m 236,235.95593 c -18.04603,13.28491 -34.23088,29.70257 -47.5,49.15625 -20.35151,29.83707 -35.125,66.32093 -35.125,102.6875 l 0,169 c -0.0139,3.73153 2.07299,5.625 4.71875,5.625 l 51.25,0 c -6.76392,-3.31991 -11.57017,-7.73906 -14.21875,-13.0625 -19.70964,-39.61478 43.32544,-109.52751 141.34375,-163.1875 4.19654,-3.07334 8.15569,-6.31126 8.03125,-7.5625 -0.15756,-1.58427 -6.5,1 -6.5,1 -46.76764,18.53468 -88.00154,47.73895 -125.75,79.375 0,0 -7.55535,-33.91436 -10.75,-50.625 -1.97063,-10.30803 -4.57979,-20.54571 -5.5,-31 -0.84761,-9.62943 0,-29 0,-29 0,0 0.45623,-19.49078 3.375,-29 3.056,-9.95629 14.5625,-28.71875 14.5625,-28.71875 0,0 9.37982,-13.19232 16.71875,-20.53125 1.86572,-1.86572 3.75325,-5.48179 3.8125,-8.25 0.0487,-2.27556 -1.43816,-3.66163 -1.96875,-5.875 -0.69025,-2.8794 -1.38066,-6.3532 -1.28125,-9.3125 0.0762,-2.26863 0.54813,-4.17278 1.53125,-6.21875 0.70855,-1.47455 2.15765,-3.23895 3.25,-4.5 z" id="path3122" inkscape:connector-curvature="0" />
        <path style="fill:#000;fill-opacity:1;stroke:none" d="m 558.375,387.51843 c -15.23634,37.80236 -66.71936,89.23714 -141.25,129.21875 -43.10449,23.1232 -82.22166,37.82997 -115.28125,45.6875 l 251.96875,0 c 3.06128,0 4.65625,-1.48509 4.65625,-5.53125 -0.0431,-50.48775 -0.0828,-110.35438 -0.0937,-169.375 z" id="path3094" inkscape:connector-curvature="0" />
        <path style="fill:#000;fill-opacity:1;fill-rule:evenodd;stroke:none" d="m 363.3125,190.375 c -27.32837,-0.0443 -82.45632,19.20775 -140.5,52.0625 -85.28308,48.27321 -123.71721,96.40009 -108.9375,105.34375 19.69762,11.91964 82.96134,6.49636 171.34375,-44.53125 36.27153,-20.94138 104.60685,-71.59591 95.65625,-105 -1.43067,-5.33933 -7.67777,-7.85897 -17.5625,-7.875 z M 231.75,249.75 c 0,0 19.18937,36.69473 -10.5,59.25 -40.57572,30.82572 -70.5,-2 -70.5,-2 19.97589,-21.24764 48.14579,-41.62056 81,-57.25 z" transform="translate(136.5,193.36218)" id="path3096" inkscape:connector-curvature="0" />
      </g>
      <g transform="matrix(2.1501372,0,0,2.1509725,-155.7507,-1003.6328)" style="fill:#000" id="g3261">
        <g id="text3143" style="font-size:30px;font-style:normal;font-weight:bold;text-align:start;text-anchor:start;fill:#000;font-family:Gotham Black" transform="matrix(5.6956046,0,0,5.7603967,-1277.173,570.00134)">
          <path inkscape:connector-curvature="0" id="path3167" style="font-size:30px;font-style:normal;font-weight:bold;text-align:start;text-anchor:start;fill:#000;font-family:Gotham Black" d="m 264.19265,47.744244 c 0.78122,0 1.37999,-0.164943 1.7963,-0.494843 0.4163,-0.329889 0.62445,-0.804895 0.62447,-1.425018 l 0,-0.05951 c -2e-5,-0.580437 -0.19957,-1.040642 -0.59864,-1.380615 -0.39911,-0.339958 -1.02396,-0.509949 -1.87457,-0.509949 l -4.73029,0 0,3.869934 z m -1.60721,-7.949524 c 0.78123,1.3e-5 1.37577,-0.149981 1.78361,-0.449982 0.40782,-0.299974 0.61173,-0.760026 0.61175,-1.380157 l 0,-0.06043 c -2e-5,-0.579819 -0.19096,-1.024765 -0.57283,-1.334839 -0.38188,-0.310042 -0.95443,-0.465071 -1.71765,-0.465088 l -3.2804,0 0,3.690491 z m -8.09571,-8.370667 9.34543,0 c 1.14562,2.1e-5 2.12627,0.160086 2.94194,0.480195 0.81565,0.320149 1.45889,0.562905 1.99777,1.095721 0.36439,0.419941 0.82059,0.779541 1.08967,1.502429 0.2084,0.560014 0.31683,1.420842 0.31685,2.14104 l 0,0.166919 c -2e-5,1.220108 -0.46646,2.159182 -0.99582,2.909291 -0.52941,0.750134 -1.28972,0.847686 -2.10538,1.247455 1.54961,0.246334 3.22036,1.502341 3.87106,2.292431 0.65066,0.790109 0.97599,1.894996 0.97602,3.314667 l 0,0.06042 c -3e-5,1.820072 -0.60303,3.240054 -1.80903,4.259948 -1.20603,1.019898 -4.04373,1.529847 -6.23065,1.529847 l -9.39786,0 z" sodipodi:nodetypes="sscccsccscccccccccccccccccccccsscc" />
          <path inkscape:connector-curvature="0" id="path3169" style="font-size:30px;font-style:normal;font-weight:bold;text-align:start;text-anchor:start;fill:#000;font-family:Gotham Black" d="m 273.91594,31.424053 15.85322,0 0,4.38606 -10.74644,0 0,3.874938 9.15695,0 0,4.112141 -9.15695,0 0,4.154369 10.98821,0 0,4.472859 -16.09499,0 z" sodipodi:nodetypes="ccccccccccccc" />
          <path inkscape:connector-curvature="0" id="path3171" style="font-size:30px;font-style:normal;font-weight:bold;text-align:start;text-anchor:start;fill:#000;font-family:Gotham Black" d="m 292.22846,31.424053 5.46853,0 0,16.550961 9.55549,0 0,4.449406 -15.02402,0 z" sodipodi:nodetypes="ccccccc" />
          <path sodipodi:nodetypes="ccccccc" d="m 309.3611,31.424053 5.46853,0 0,16.550961 9.55549,0 0,4.449406 -15.02402,0 z" style="font-size:30px;font-style:normal;font-weight:bold;text-align:start;text-anchor:start;fill:#000;font-family:Gotham Black" id="path3187" inkscape:connector-curvature="0" />
        </g>
        <g style="fill:#000" id="g3255">
          <path sodipodi:nodetypes="ccccccccc" inkscape:connector-curvature="0" id="path3157" style="font-size:30px;font-style:normal;font-weight:bold;text-align:start;text-anchor:start;fill:#000;font-family:Gotham Black" d="m 171.58918,634.60452 -36.16994,0 0,-25.22357 104.20308,0 0,25.22357 -37.23063,0 0,96.10042 -30.80251,0 z" />
          <path sodipodi:nodetypes="ccccccccccccc" inkscape:connector-curvature="0" id="path3159" style="font-size:30px;font-style:normal;font-weight:bold;text-align:start;text-anchor:start;fill:#000;font-family:Gotham Black" d="m 294.78978,688.50869 -14.81689,-41.48145 -15.78172,41.48145 z m -26.01656,-79.63381 24.99374,0 49.36147,121.83006 -32.47013,0 -7.00798,-17.85148 -47.7671,0 -7.41414,17.85148 -30.02467,0 z" />
          <path style="font-size:30px;font-style:normal;font-weight:bold;text-align:start;text-anchor:start;fill:#000;font-family:Gotham Black" d="m 513.12498,607.33093 c -8.43116,0.27009 -17.6673,2.54818 -24.75,5.625 -7.55499,3.28218 -13.76029,7.42237 -19.34375,13.125 -5.58346,5.70284 -8.50415,12.02476 -11.625,19.6875 -3.12085,7.66291 -3.96875,15.79908 -3.96875,24.4375 l 0,0.375 c 0,8.63854 0.8479,16.73897 3.96875,24.34375 3.12085,7.60485 7.4001,14.2303 12.875,19.875 5.4749,5.64473 12.00751,10.12243 19.5625,13.40625 7.55488,3.28382 15.75683,4.90625 24.625,4.90625 8.868,0 17.07001,-1.62243 24.625,-4.90625 7.55488,-3.28382 14.13518,-7.79725 19.71875,-13.5 5.58334,-5.70272 9.94148,-12.37015 13.0625,-20.03125 3.12068,-7.66103 3.78114,-15.8267 3.78125,-24.46875 l 0,-0.34375 c -1.1e-4,-8.64193 -0.66057,-16.74061 -3.78125,-24.34375 -3.12102,-7.60297 -7.43317,-14.22842 -12.90625,-19.875 -5.47336,-5.64637 -11.97643,-10.12407 -19.53125,-13.40625 -7.55499,-3.28194 -15.78489,-4.90613 -24.65625,-4.90625 -0.55426,1e-5 -1.09417,-0.018 -1.65625,0 z m 1.3125,26.53125 c 4.69745,1e-4 9.00142,0.97979 12.875,2.96875 3.87324,1.98917 7.21301,4.6641 10.03125,8 2.81813,3.33609 5.00477,7.16948 6.53125,11.53125 1.52631,4.36194 2.28114,8.96904 2.28125,13.84375 l 0,0.40625 c -1.1e-4,4.87485 -0.75494,9.48195 -2.28125,13.84375 -1.52648,4.3619 -3.64392,8.1974 -6.34375,11.46875 -2.7,3.27143 -5.99988,5.85682 -9.875,7.78125 -3.87535,1.9245 -8.1463,2.87503 -12.84375,2.875 -4.69409,3e-5 -8.99971,-0.98161 -12.875,-2.96875 -3.87523,-1.98708 -7.17849,-4.66396 -9.9375,-8 -2.75906,-3.33595 -4.91108,-7.16739 -6.4375,-11.53125 -1.52642,-4.36376 -2.28131,-9.00015 -2.28125,-13.875 l 0,-0.375 c -6e-5,-4.87864 0.72008,-9.48181 2.1875,-13.84375 1.46724,-4.36177 3.58469,-8.19727 6.34375,-11.46875 2.75901,-3.2713 6.05889,-5.85668 9.875,-7.78125 3.81611,-1.92436 8.05232,-2.8749 12.75,-2.875 z" id="path3163" inkscape:connector-curvature="0" />
          <path sodipodi:nodetypes="sssccsssssssccsss" transform="translate(136.5,193.36218)" inkscape:connector-curvature="0" id="path3189" d="m 201.87899,477.0049 c 0,-15.45677 4.04325,-32.73447 14.62101,-44.0049 11.56433,-12.3216 30.10161,-19 47,-19 33.06737,0 48.33409,22.87659 48.33409,22.87659 l -23.5113,16.97056 c 0,0 -6.30954,-7.16382 -10.42983,-9.36916 -4.18334,-2.23909 -9.06483,-3.98289 -13.78858,-3.53554 -8.81744,0.83502 -18.17422,4.67911 -24.04163,11.31371 -5.50565,6.22553 -8.13064,15.38475 -7.77817,23.68808 0.47254,11.13174 4.73555,23.37778 13.08147,30.75914 4.63818,4.10214 12.55115,5.12653 17.85445,5.12653 7.86657,0 12.1366,-1.54902 17.50089,-4.24264 3.6274,-1.82146 9.36917,-7.77818 9.36917,-7.77818 l 24.57196,17.67767 c 0,0 -18.42365,21.92031 -50.55814,21.92031 -14.13001,0 -29.52102,-3.37897 -39.3731,-11.71015 -14.56917,-12.32008 -22.85229,-22.36565 -22.85229,-50.69202 z" style="fill:#000" />
        </g>
        <g id="g3217" transform="matrix(0.62500655,0,0,0.62500655,405.36411,842.34472)" style="fill:#000">
          <g style="font-size:30px;font-style:normal;font-weight:bold;text-align:start;text-anchor:start;fill:#000;font-family:Gotham Book" id="text3219">
            <path d="m 281.41988,8.3415737 -7.04956,0 0,-2.1899414 16.49963,0 0,2.1899414 -7.04956,0 0,18.8104253 -2.40051,0 z" style="font-size:30px;font-style:normal;font-weight:bold;text-align:start;text-anchor:start;fill:#000;font-family:Gotham Book" id="path3231" inkscape:connector-curvature="0" />
            <path d="m 292.12311,6.1516323 2.3996,0 7.65014,11.4605717 7.65015,-11.4605717 2.40051,0 0,21.0003667 -2.3703,0 0,-17.009583 -7.65015,11.25 -0.11993,0 -7.65015,-11.220703 0,16.980286 -2.30987,0 z" style="font-size:30px;font-style:normal;font-weight:bold;text-align:start;text-anchor:start;fill:#000;font-family:Gotham Book" id="path3233" inkscape:connector-curvature="0" />
          </g>
          <g style="font-size:30px;font-style:normal;font-weight:bold;text-align:start;text-anchor:start;fill:#000;font-family:Gotham Book" id="text3221" />
        </g>
      </g>
    </g>
  </g>
</svg>
